# xmcd
#
# Track frame offsets:
#	150
#	20744
#	40265
#	55673
#	77039
#	90579
#	111974
#	143760
#	156846
#	171016
#
# Disc length: 2521 seconds
#
# Revision: 0
# Processed by: cddbd v1.5.2PL0 Copyright (c) Steve Scherf et al.
# Submitted via: EZCDAudioConverter 2.2.2.1
#
DISCID=7909d70a
DTITLE=Avant press - Leo Garcia es Avant Press
DYEAR=1900
DGENRE=
TTITLE0=Entre rosas
TTITLE1=Nada es tan facil
TTITLE2=Sobre el mar
TTITLE3=Espuma blanca
TTITLE4=Viento
TTITLE5=Entre rosas (revisitado por Ambar)
TTITLE6=Sobre el mar (revisitado por Ambar)
TTITLE7=Cybersirena
TTITLE8=Quiero estar lejos
TTITLE9=Quizas
EXTD=
EXTT0=
EXTT1=
EXTT2=
EXTT3=
EXTT4=
EXTT5=
EXTT6=
EXTT7=
EXTT8=
EXTT9=
PLAYORDER=
